<svg width="27" height="32" viewBox="0 0 27 32" fill="none" xmlns="http://www.w3.org/2000/svg">
<g clip-path="url(#clip0_0_641)">
<path d="M26.7716 16.3652C26.7716 15.1046 26.6805 14.1847 26.4833 13.2307H13.6597V18.9204H21.1869C21.0352 20.3344 20.2157 22.4638 18.3945 23.8947L18.369 24.0852L22.4236 27.6111L22.7045 27.6426C25.2843 24.968 26.7716 21.0328 26.7716 16.3652Z" fill="#4285F4"/>
<path d="M13.6597 31.3561C17.3474 31.3561 20.4432 29.9932 22.7045 27.6424L18.3946 23.8946C17.2412 24.7975 15.6932 25.4278 13.6597 25.4278C10.0479 25.4278 6.98236 22.7533 5.88959 19.0566L5.72942 19.0719L1.51339 22.7345L1.45825 22.9066C3.70426 27.9149 8.31775 31.3561 13.6597 31.3561Z" fill="#34A853"/>
<path d="M5.8899 19.0566C5.60156 18.1026 5.43469 17.0804 5.43469 16.0243C5.43469 14.968 5.60156 13.946 5.87473 12.992L5.86709 12.7888L1.59823 9.06738L1.45856 9.14196C0.532871 11.2203 0.00170898 13.5542 0.00170898 16.0243C0.00170898 18.4944 0.532871 20.8282 1.45856 22.9065L5.8899 19.0566Z" fill="#FBBC05"/>
<path d="M13.6597 6.62087C16.2244 6.62087 17.9544 7.86444 18.9409 8.90367L22.7955 4.67889C20.4282 2.20878 17.3474 0.692627 13.6597 0.692627C8.31774 0.692627 3.70426 4.13373 1.45825 9.14207L5.87442 12.9921C6.98236 9.29545 10.0479 6.62087 13.6597 6.62087Z" fill="#EB4335"/>
</g>
<defs>
<clipPath id="clip0_0_641">
<rect width="26.7858" height="30.7692" fill="white" transform="translate(0 0.692627)"/>
</clipPath>
</defs>
</svg>
