<svg width="34" height="39" viewBox="0 0 34 39" fill="none" xmlns="http://www.w3.org/2000/svg">
<g clip-path="url(#clip0_0_627)">
<path d="M1.81982 13.2212H8.09775V36.0577H1.81982V13.2212Z" fill="#187FB8"/>
<path d="M1.81982 13.2212H8.09775V36.0577H1.81982V13.2212Z" fill="#187FB8"/>
<path d="M1.81982 13.2212H8.09775V36.0577H1.81982V13.2212Z" fill="#1267A0"/>
<path d="M1.81982 26.1407C3.38931 26.863 5.48195 27.4676 8.09775 27.9345V13.2212H1.81982V26.1407Z" fill="#187FB8"/>
<path d="M1.81982 16.1653C3.38931 16.8883 5.48195 17.4922 8.09775 17.9592V13.2212H1.81982V16.1653Z" fill="#2499CE"/>
<path d="M25.2909 12.937C21.668 12.937 19.0841 15.1888 19.0841 16.7681V13.2213H11.7734C11.8655 15.0242 11.7734 36.0578 11.7734 36.0578H19.0841V23.7153C19.0841 23.0242 18.9512 22.3318 19.1338 21.8342C19.6224 20.4508 20.5411 19.0163 22.4276 19.0163C24.8938 19.0163 25.8852 21.1431 25.8852 24.2597V36.0578H33.2094V23.3727C33.2094 16.2453 29.7832 12.937 25.2909 12.937Z" fill="#187FB8"/>
<path d="M25.2909 12.937C21.668 12.937 19.0841 15.1888 19.0841 16.7681V13.2213H11.7734C11.8655 15.0242 11.7734 36.0578 11.7734 36.0578H19.0841V23.7153C19.0841 23.0242 18.9512 22.3318 19.1338 21.8342C19.6224 20.4508 20.5411 19.0163 22.4276 19.0163C24.8938 19.0163 25.8852 21.1431 25.8852 24.2597V36.0578H33.2094V23.3727C33.2094 16.2453 29.7832 12.937 25.2909 12.937Z" fill="#1267A0"/>
<path d="M25.2909 12.937C21.668 12.937 19.0841 15.1888 19.0841 16.7681V13.2213H11.7734C11.8278 14.4232 11.8174 22.3367 11.7996 28.5903C14.0638 28.8781 16.4683 29.0217 19.0841 29.0278V23.7153C19.0841 23.0242 19.0977 22.8853 19.0977 22.8853C19.0977 20.7141 20.5406 19.0163 22.4276 19.0163C24.8938 19.0163 25.8852 21.1431 25.8852 24.2597V28.6023C28.501 28.2892 30.9844 27.809 33.2094 27.1882V23.3721C33.2094 16.2453 29.7832 12.937 25.2909 12.937Z" fill="#187FB8"/>
<path d="M25.2908 12.9369C21.6679 12.9369 19.084 15.1887 19.084 16.768V13.2211H11.7734C11.8001 13.8221 11.8111 15.8762 11.8137 18.6382C14.1172 18.9303 16.5321 19.0709 19.0197 19.0709C23.7344 19.0709 28.2341 18.5012 32.1693 17.5102C30.7903 14.4224 28.2838 12.9369 25.2908 12.9369ZM4.63593 2.29443C2.30054 2.29443 0.773438 3.98614 0.773438 6.25898C0.773438 8.48915 2.2566 10.2163 4.54542 10.2163H4.59146C6.96766 10.2163 8.44715 8.48253 8.44715 6.25357C8.40268 3.98133 6.96818 2.29443 4.63593 2.29443Z" fill="#2499CE"/>
<path d="M4.63593 4.45849C2.30054 4.45849 0.773438 3.98613 0.773438 6.25897C0.773438 8.48914 2.2566 10.2163 4.54542 10.2163H4.59146C6.96766 10.2163 8.44715 8.48253 8.44715 6.25356C8.40269 3.98133 6.96818 4.45849 4.63593 4.45849Z" fill="#187FB8"/>
<path d="M4.63593 7.75898C2.30054 7.75898 0.773438 5.55104 0.773438 6.25898C0.773438 8.48915 2.2566 10.2163 4.54542 10.2163H4.59146C6.96766 10.2163 8.44715 8.48254 8.44715 6.25357C8.43355 5.54684 6.93679 7.75898 4.63593 7.75898Z" fill="#1267A0"/>
</g>
<defs>
<clipPath id="clip0_0_627">
<rect width="33.4823" height="38.4615" fill="white" transform="translate(0.250244)"/>
</clipPath>
</defs>
</svg>
